<svg xmlns="http://www.w3.org/2000/svg" xmlns:xlink="http://www.w3.org/1999/xlink" viewBox="0 0 1366.69 768"><defs><style>.cls-1{fill:url(#Degradado_sin_nombre_17);}</style><linearGradient id="Degradado_sin_nombre_17" x1="972.85" y1="209.82" x2="105.13" y2="731.25" gradientUnits="userSpaceOnUse"><stop offset="0" stop-color="#2444ff"/><stop offset="1" stop-color="#3fffec"/></linearGradient></defs><title>bg</title><g id="Capa_2" data-name="Capa 2"><g id="Capa_1-2" data-name="Capa 1"><path class="cls-1" d="M271,746c30.1.44,58.55-13.51,87.83-21a210.17,210.17,0,0,1,116.63,3.62c20.93,6.77,41.3,16.9,63.1,18.26,28.71,1.8,56.05-11.75,83.84-19.73a222.52,222.52,0,0,1,132.07,3c21.59,7.28,42.84,18,65.45,17.83,29.52-.2,56.05-18.83,84.8-26.09,52.43-13.24,106.17,12.08,160,14.5,38.72,1.74,76.93-8.45,115.33-14.13,62-9.17,119.8,6.3,173.25,41.1,2.33,1.51,4.63,3.07,6.91,4.66H1366V341s31-220-322-212S683,0,683,0H0V754.44c40.38-22.53,83.25-31.61,128.7-35.89C179.42,713.76,221.23,745.26,271,746Z"/></g></g></svg>