<svg xmlns="http://www.w3.org/2000/svg" xmlns:xlink="http://www.w3.org/1999/xlink" viewBox="0 0 688.53 480.01"><defs><style>.cls-1{fill:url(#Degradado_sin_nombre);}</style><linearGradient id="Degradado_sin_nombre" x1="550.75" y1="262.36" x2="37.99" y2="570.48" gradientTransform="translate(0 -146)" gradientUnits="userSpaceOnUse"><stop offset="0" stop-color="#2444ff"/><stop offset="1" stop-color="#3fffec"/></linearGradient></defs><title>bg3_1</title><g id="Capa_2" data-name="Capa 2"><g id="Capa_1-2" data-name="Capa 1"><g id="Capa_2-2" data-name="Capa 2"><g id="Capa_1-2-2" data-name="Capa 1-2"><g id="Capa_2-2-2" data-name="Capa 2-2"><g id="Capa_1-2-2-2" data-name="Capa 1-2-2"><path class="cls-1" d="M144.32,466.24c14.71.28,28.64-8.45,42.94-13.14,16.72-5.5,32.91-6,49.49.12,11.19,4.17,22,9.76,33.91,11.73,20,3.3,32.25-6.23,49.57-11.92,18-5.93,40.38-5.78,57.54,2.29,11.44,5.37,23.79,11.21,37.15,10.86,15.62-.41,25.16-10.46,39.14-15,25.68-8.27,51.9,7.55,78.19,9.07,18.93,1.09,37.61-5.29,56.39-8.83a90.49,90.49,0,0,1,22.8-1.43c24.8,1.63,31.61,18.91,61.88,27.09A106.72,106.72,0,0,0,688.53,480h0V0H566Q283,.09,0,.87L1,480c19.75-14.08,51.57-28.24,73.79-30.91C99.56,446.09,120,465.8,144.32,466.24Z"/></g></g></g></g></g></g></svg>