<?xml version="1.0" ?><!DOCTYPE svg  PUBLIC '-//W3C//DTD SVG 1.1//EN'  'http://www.w3.org/Graphics/SVG/1.1/DTD/svg11.dtd'><svg enable-background="new 0 0 128 128" id="Слой_1" version="1.1" viewBox="0 0 128 128" xml:space="preserve" xmlns="http://www.w3.org/2000/svg" xmlns:xlink="http://www.w3.org/1999/xlink"><g><g><path d="M69.7,6.2c-3.2-3-8.2-3-11.5,0L13.1,47.6v67.9c0,4.7,3.8,8.5,8.5,8.5h84.8c4.7,0,8.5-3.8,8.5-8.5V47.6    L69.7,6.2z" fill="#F3EEDC"/><path d="M18.1,51.6l45.2-41.4c2.6-2.3,6.2-2.8,9.2-1.5l-2.8-2.5c-3.2-3-8.2-3-11.5,0L13.1,47.6v67.9    c0,3.8,2.6,7.1,6.1,8.1c-0.7-1.2-1.1-2.6-1.1-4.1V51.6z" fill="#FFFFFF"/><path d="M73.1,78.9c-2.5-2.3-5.7-3.5-9.1-3.5s-6.6,1.3-9.1,3.5L54.7,79l-38-34.8l-3.7,3.4v67.9    c0,4.7,3.8,8.5,8.5,8.5h84.8c4.7,0,8.5-3.8,8.5-8.5V47.6l-3.7-3.4L73.3,79L73.1,78.9z" fill="#060808" opacity="0.1"/><path d="M73.3,85.8l-3.5-3.2c-3.2-3-8.2-3-11.5,0l-3.5,3.2L13.1,47.6v67.9c0,3.3,1.8,6.1,4.5,7.5c0,0,0,0,0,0    c0.2,0.1,0.5,0.2,0.7,0.3c0,0,0.1,0,0.1,0c0.2,0.1,0.4,0.2,0.7,0.2c0.1,0,0.2,0,0.2,0.1c0.2,0.1,0.4,0.1,0.6,0.1    c0.1,0,0.3,0,0.4,0.1c0.1,0,0.3,0,0.4,0.1c0.3,0,0.6,0,0.9,0h84.8c0.3,0,0.6,0,0.9,0c0.1,0,0.3,0,0.4-0.1c0.1,0,0.3,0,0.4-0.1    c0.2,0,0.4-0.1,0.6-0.1c0.1,0,0.2,0,0.2-0.1c0.2-0.1,0.4-0.1,0.7-0.2c0,0,0.1,0,0.1,0c0.2-0.1,0.5-0.2,0.7-0.3c0,0,0,0,0,0    c2.7-1.4,4.5-4.2,4.5-7.5V47.6L73.3,85.8z" fill="#F36360"/><path d="M18.1,53.6l-5-6v67.9c0,3.5,2.1,6.5,5.2,7.8c-0.1-0.6-2.6-1.1-2.6-1.7L18.1,53.6z" fill="#FFFFFF"/><path d="M109.9,52.2v57.3c0,4.7-2.8,9.5-7.5,9.5H19.6c0,0-3.9,2.6-3.8,2.6c0,0-0.1,0,0,0.1    c0.4,0.4,2.2,2.3,5.8,2.3h84.8c4.7,0,8.5-3.8,8.5-8.5V47.6L109.9,52.2z" fill="#060808" opacity="0.1"/><path d="M116.3,47.2C116.3,47.2,116.3,47.1,116.3,47.2c-0.1-0.2-0.2-0.4-0.3-0.5c0,0,0,0,0,0c0,0,0,0,0,0    c0,0,0,0-0.1-0.1L70.7,5.1c-1.8-1.7-4.2-2.6-6.7-2.6s-4.9,0.9-6.7,2.6L12.1,46.5c0,0,0,0-0.1,0.1c0,0,0,0,0,0c0,0,0,0,0,0    c-0.1,0.1-0.2,0.3-0.3,0.4c0,0,0,0,0,0.1c0,0.1-0.1,0.3-0.1,0.5v67.9c0,2.8,1.1,5.3,3,7.1c0,0,0,0,0,0c0,0,0,0,0,0    c1.8,1.8,4.3,2.9,7,2.9h84.8c2.7,0,5.2-1.1,7-2.9c0,0,0,0,0,0c0,0,0,0,0,0c1.8-1.8,3-4.3,3-7.1V47.6    C116.4,47.5,116.4,47.3,116.3,47.2z M112.2,119.5L75.5,85.8L113.4,51v64.5C113.4,117,113,118.3,112.2,119.5z M59.3,7.3    c1.3-1.2,3-1.8,4.7-1.8s3.4,0.7,4.7,1.8l44,40.3L73.3,83.8l-2.5-2.3c-3.8-3.5-9.6-3.5-13.5,0l-2.5,2.3L15.3,47.6L59.3,7.3z     M15.8,119.5c-0.8-1.1-1.2-2.5-1.2-3.9V51l37.9,34.8L15.8,119.5z M21.6,122.5c-1.3,0-2.5-0.4-3.6-1l41.3-37.8    c2.7-2.5,6.7-2.5,9.4,0l41.3,37.8c-1,0.6-2.3,1-3.6,1H21.6z" fill="#4A374F"/></g><g><path d="M65.1,37.4C65.1,37.4,65.1,37.3,65.1,37.4c-0.2-0.1-0.3-0.2-0.4-0.3c0,0-0.1,0-0.1-0.1c0,0,0,0,0,0    c-0.2-0.1-0.3-0.1-0.5-0.1c0,0-0.1,0-0.1,0c-0.1,0-0.3,0-0.4,0.1c-0.1,0-0.1,0-0.2,0.1c-0.1,0.1-0.2,0.1-0.3,0.2    c0,0-0.1,0-0.1,0.1c0,0,0,0,0,0c0,0,0,0-0.1,0L57.8,43c-0.6,0.6-0.5,1.6,0.1,2.1c0.6,0.6,1.6,0.5,2.1-0.1l2.5-2.8v7.4    c0,0.8,0.7,1.5,1.5,1.5s1.5-0.7,1.5-1.5v-7.4L68,45c0.3,0.3,0.7,0.5,1.1,0.5c0.4,0,0.7-0.1,1-0.4c0.6-0.6,0.7-1.5,0.1-2.1    L65.1,37.4z" fill="#4A374F"/><path d="M64,27.5c-9.1,0-16.5,7.4-16.5,16.5S54.9,60.5,64,60.5S80.5,53.1,80.5,44S73.1,27.5,64,27.5z M64,57.5    c-7.4,0-13.5-6.1-13.5-13.5S56.6,30.5,64,30.5S77.5,36.6,77.5,44S71.4,57.5,64,57.5z" fill="#4A374F"/></g></g></svg>